<svg width="51" height="51" viewBox="0 0 51 51" fill="none" xmlns="http://www.w3.org/2000/svg">
<rect x="0.664795" y="0.68631" width="50" height="50" rx="8.07781" fill="#03A696"/>
<rect x="0.664795" y="0.68631" width="50" height="50" rx="8.07781" stroke="#C2C2C2"/>
<g clip-path="url(#clip0_6_669)">
<path d="M16.6643 16.6863H34.6643C34.9295 16.6863 35.1839 16.7916 35.3714 16.9792C35.559 17.1667 35.6643 17.4211 35.6643 17.6863V33.6863C35.6643 33.9515 35.559 34.2059 35.3714 34.3934C35.1839 34.5809 34.9295 34.6863 34.6643 34.6863H16.6643C16.3991 34.6863 16.1447 34.5809 15.9572 34.3934C15.7697 34.2059 15.6643 33.9515 15.6643 33.6863L15.6643 17.6863C15.6643 17.4211 15.7697 17.1667 15.9572 16.9792C16.1447 16.7916 16.3991 16.6863 16.6643 16.6863V16.6863ZM33.6643 20.9243L25.7363 28.0243L17.6643 20.9023V32.6863H33.6643V20.9243ZM18.1753 18.6863L25.7253 25.3483L33.1663 18.6863H18.1753Z" fill="white"/>
</g>
<defs>
<clipPath id="clip0_6_669">
<rect x="13.6647" y="13.6863" width="24" height="24" fill="white"/>
</clipPath>
</defs>
</svg>
