<svg width="51" height="51" viewBox="0 0 51 51" fill="none" xmlns="http://www.w3.org/2000/svg">
<rect x="0.664795" y="0.775574" width="50" height="50" rx="8.07781" fill="#03A696"/>
<rect x="0.664795" y="0.775574" width="50" height="50" rx="8.07781" stroke="#C2C2C2"/>
<g clip-path="url(#clip0_375_4)">
<path d="M33.0413 23.7756H34.053C34.3214 23.7756 34.5787 23.8809 34.7685 24.0685C34.9582 24.256 35.0648 24.5104 35.0648 24.7756V34.7756C35.0648 35.0408 34.9582 35.2951 34.7685 35.4827C34.5787 35.6702 34.3214 35.7756 34.053 35.7756H17.8648C17.5965 35.7756 17.3391 35.6702 17.1494 35.4827C16.9596 35.2951 16.853 35.0408 16.853 34.7756V24.7756C16.853 24.5104 16.9596 24.256 17.1494 24.0685C17.3391 23.8809 17.5965 23.7756 17.8648 23.7756H18.8766V22.7756C18.8766 21.8563 19.0597 20.9461 19.4157 20.0968C19.7716 19.2475 20.2933 18.4758 20.9509 17.8258C21.6086 17.1758 22.3893 16.6602 23.2486 16.3084C24.1079 15.9566 25.0288 15.7756 25.9589 15.7756C26.889 15.7756 27.8099 15.9566 28.6692 16.3084C29.5285 16.6602 30.3092 17.1758 30.9669 17.8258C31.6245 18.4758 32.1462 19.2475 32.5022 20.0968C32.8581 20.9461 33.0413 21.8563 33.0413 22.7756V23.7756ZM18.8766 25.7756V33.7756H33.0413V25.7756H18.8766ZM24.9471 27.7756H26.9707V31.7756H24.9471V27.7756ZM31.0177 23.7756V22.7756C31.0177 21.4495 30.4848 20.1777 29.536 19.24C28.5873 18.3024 27.3006 17.7756 25.9589 17.7756C24.6172 17.7756 23.3305 18.3024 22.3818 19.24C21.4331 20.1777 20.9001 21.4495 20.9001 22.7756V23.7756H31.0177Z" fill="white"/>
</g>
<defs>
<clipPath id="clip0_375_4">
<rect x="13.8179" y="13.7756" width="24.2824" height="24" fill="white"/>
</clipPath>
</defs>
</svg>
